<svg xmlns="http://www.w3.org/2000/svg" viewBox="0 0 512 512">
  <defs>
    <linearGradient id="bg" x1="0" y1="0" x2="1" y2="1">
      <stop offset="0%" stop-color="#eef5f1"/>
      <stop offset="100%" stop-color="#c1d7c8"/>
    </linearGradient>
  </defs>
  <rect width="512" height="512" rx="104" fill="url(#bg)"/>
  <rect x="78" y="78" width="356" height="356" rx="44" fill="#f6f2e8"/>
  <g fill="#c7d9cb">
    <rect x="122.5" y="122.5" width="44.5" height="44.5"/>
    <rect x="211.5" y="122.5" width="44.5" height="44.5"/>
    <rect x="300.5" y="122.5" width="44.5" height="44.5"/>
    <rect x="389.5" y="122.5" width="44.5" height="44.5"/>
    <rect x="167" y="167" width="44.5" height="44.5"/>
    <rect x="256" y="167" width="44.5" height="44.5"/>
    <rect x="345" y="167" width="44.5" height="44.5"/>
    <rect x="122.5" y="211.5" width="44.5" height="44.5"/>
    <rect x="211.5" y="211.5" width="44.5" height="44.5"/>
    <rect x="300.5" y="211.5" width="44.5" height="44.5"/>
    <rect x="389.5" y="211.5" width="44.5" height="44.5"/>
    <rect x="167" y="256" width="44.5" height="44.5"/>
    <rect x="256" y="256" width="44.5" height="44.5"/>
    <rect x="345" y="256" width="44.5" height="44.5"/>
    <rect x="122.5" y="300.5" width="44.5" height="44.5"/>
    <rect x="211.5" y="300.5" width="44.5" height="44.5"/>
    <rect x="300.5" y="300.5" width="44.5" height="44.5"/>
    <rect x="389.5" y="300.5" width="44.5" height="44.5"/>
    <rect x="167" y="345" width="44.5" height="44.5"/>
    <rect x="256" y="345" width="44.5" height="44.5"/>
    <rect x="345" y="345" width="44.5" height="44.5"/>
    <rect x="122.5" y="389.5" width="44.5" height="44.5"/>
    <rect x="211.5" y="389.5" width="44.5" height="44.5"/>
    <rect x="300.5" y="389.5" width="44.5" height="44.5"/>
    <rect x="389.5" y="389.5" width="44.5" height="44.5"/>
  </g>
  <path
    d="M269 116c13 0 24 11 24 24 0 8-4 15-10 19l20 36c24 6 41 28 41 53v18h-20v24h18v24h-16l20 66H167l20-66h-16v-24h18v-24h-20v-18c0-25 17-47 41-53l20-36c-6-4-10-11-10-19 0-13 11-24 24-24 13 0 25 11 25 24 0 8-4 15-10 19l13 24h5l13-24c-6-4-10-11-10-19 0-13 11-24 24-24Z"
    fill="#8a6753"
  />
  <path
    d="M254 170c-10 0-18 8-18 18s8 18 18 18 18-8 18-18-8-18-18-18Zm-39 98h78v22h-78zm-16 46h110l-9 30h-92z"
    fill="#5f7f9f"
    opacity="0.94"
  />
</svg>
